<svg xmlns="http://www.w3.org/2000/svg" xmlns:xlink="http://www.w3.org/1999/xlink" version="1.1" width="1000" height="1000" viewBox="0 0 1000 1000" xml:space="preserve">
<desc>Created with Fabric.js 3.5.0</desc>
<defs>
</defs>
<rect x="0" y="0" width="100%" height="100%" fill="rgba(255,255,255,0)"/>
<g transform="matrix(-0.9608 0 0 0.9675 342.7727 328.2607)" id="163231">
<g style="" vector-effect="non-scaling-stroke">
		<g transform="matrix(12.5 0 0 12.5 -266.5002 78.3748)" id="o">
<path style="stroke: none; stroke-width: 1; stroke-dasharray: none; stroke-linecap: butt; stroke-dashoffset: 0; stroke-linejoin: miter; stroke-miterlimit: 4; is-custom-font: none; font-file-url: none; fill: rgb(169,132,121); fill-rule: nonzero; opacity: 1;" transform=" translate(-10.68, -38.27)" d="M 10.86 44.05 l 5.5 -1.79 l -1.09 -4.64 l -9.8 -5.1 c -0.28 -0.15 -0.58 0.15 -0.43 0.43 l 5.31 10.28 c 0.15 0.29 0.32 0.56 0.51 0.83 h 0 Z" stroke-linecap="round"/>
</g>
		<g transform="matrix(12.5 0 0 12.5 -107.75 155.6106)" id="p">
<path style="stroke: none; stroke-width: 1; stroke-dasharray: none; stroke-linecap: butt; stroke-dashoffset: 0; stroke-linejoin: miter; stroke-miterlimit: 4; is-custom-font: none; font-file-url: none; fill: rgb(203,182,175); fill-rule: nonzero; opacity: 1;" transform=" translate(-23.38, -44.4488)" d="M 33.06 50.52 l 2.84 -9.67 l -2.86 -9.75 h -12.3 c -0.63 0.01 -1.22 0.32 -1.58 0.84 l -3.89 5.67 l -4.41 6.43 c 0.2 0.28 0.42 0.54 0.66 0.79 l 12.54 12.66 c 0.4 0.4 1.04 0.41 1.45 0.03 l 7.55 -7.01 Z" stroke-linecap="round"/>
</g>
		<g transform="matrix(12.5 0 0 12.5 124.8125 49.9375)" id="q">
<path style="stroke: none; stroke-width: 1; stroke-dasharray: none; stroke-linecap: butt; stroke-dashoffset: 0; stroke-linejoin: miter; stroke-miterlimit: 4; is-custom-font: none; font-file-url: none; fill: rgb(203,182,175); fill-rule: nonzero; opacity: 1;" transform=" translate(-41.985, -35.995)" d="M 50.79 48.75 c 0.09 -0.27 0.13 -0.56 0.14 -0.84 V 27.29 l -9.01 -4.05 l -8.88 4.06 l 3.59 10.71 l 14.17 10.73 Z" stroke-linecap="round"/>
</g>
		<g transform="matrix(12.5 0 0 12.5 84.1875 86.375)" id="r">
<path style="stroke: none; stroke-width: 1; stroke-dasharray: none; stroke-linecap: butt; stroke-dashoffset: 0; stroke-linejoin: miter; stroke-miterlimit: 4; is-custom-font: none; font-file-url: none; fill: rgb(169,132,121); fill-rule: nonzero; opacity: 1;" transform=" translate(-38.735, -38.91)" d="M 33.04 27.31 v 3.79 l 0.02 19.41 l 9.66 -3.38 l 1.72 -6.05 l -11.41 -13.77 Z" stroke-linecap="round"/>
</g>
		<g transform="matrix(12.5 0 0 12.5 84.3125 51)" id="s">
<path style="stroke: none; stroke-width: 1; stroke-dasharray: none; stroke-linecap: butt; stroke-dashoffset: 0; stroke-linejoin: miter; stroke-miterlimit: 4; is-custom-font: none; font-file-url: none; fill: rgb(122,82,67); fill-rule: nonzero; opacity: 1;" transform=" translate(-38.745, -36.08)" d="M 33.04 27.31 l 10.34 17.54 l 1.07 -3.77 l -11.41 -13.77 Z" stroke-linecap="round"/>
</g>
		<g transform="matrix(12.5 0 0 12.5 167.1875 -184)" id="t">
<path style="stroke: none; stroke-width: 1; stroke-dasharray: none; stroke-linecap: butt; stroke-dashoffset: 0; stroke-linejoin: miter; stroke-miterlimit: 4; is-custom-font: none; font-file-url: none; fill: rgb(203,182,175); fill-rule: nonzero; opacity: 1;" transform=" translate(-45.375, -17.28)" d="M 58.47 15.94 l -2.59 -4.4 l -6.42 -1.46 l -3.49 -2.27 c -0.55 -0.36 -1.2 -0.55 -1.86 -0.55 h -6.05 c -0.64 0 -1.24 0.29 -1.64 0.79 l -3.59 4.43 c -0.21 0.26 -0.4 0.54 -0.56 0.84 l 5.61 9.95 l 13.06 4.03 l 7.09 -10.44 c 0.19 -0.28 0.34 -0.59 0.45 -0.91 h 0 Z" stroke-linecap="round"/>
</g>
		<g transform="matrix(12.5 0 0 12.5 289.5625 -290.3401)" id="u">
<path style="stroke: none; stroke-width: 1; stroke-dasharray: none; stroke-linecap: butt; stroke-dashoffset: 0; stroke-linejoin: miter; stroke-miterlimit: 4; is-custom-font: none; font-file-url: none; fill: rgb(122,82,67); fill-rule: nonzero; opacity: 1;" transform=" translate(-55.165, -8.7728)" d="M 55.41 6.2 c -0.35 -0.08 -0.71 0.04 -0.94 0.31 l -2.97 3.44 l 5.12 1.42 l 2.21 -1.86 c -0.11 -0.27 -0.28 -0.51 -0.49 -0.71 l -2.48 -2.35 c -0.13 -0.12 -0.28 -0.2 -0.45 -0.24 h 0 Z" stroke-linecap="round"/>
</g>
		<g transform="matrix(12.5 0 0 12.5 277.9014 -241)" id="v">
<path style="stroke: none; stroke-width: 1; stroke-dasharray: none; stroke-linecap: butt; stroke-dashoffset: 0; stroke-linejoin: miter; stroke-miterlimit: 4; is-custom-font: none; font-file-url: none; fill: rgb(169,132,121); fill-rule: nonzero; opacity: 1;" transform=" translate(-54.2321, -12.72)" d="M 58.83 9.5 l -7.32 0.45 l -2.05 0.13 l 9.02 5.86 c 0.1 -0.3 0.17 -0.61 0.19 -0.93 l 0.33 -4.51 c 0.02 -0.34 -0.03 -0.68 -0.17 -0.99 h 0 Z" stroke-linecap="round"/>
</g>
		<g transform="matrix(12.5 0 0 12.5 90.1252 -146.0625)" id="w">
<path style="stroke: none; stroke-width: 1; stroke-dasharray: none; stroke-linecap: butt; stroke-dashoffset: 0; stroke-linejoin: miter; stroke-miterlimit: 4; is-custom-font: none; font-file-url: none; fill: rgb(169,132,121); fill-rule: nonzero; opacity: 1;" transform=" translate(-39.21, -20.315)" d="M 50.93 27.29 l -18.67 -13.98 c -0.16 0.29 -0.3 0.59 -0.41 0.9 l -4.32 12.16 c -0.16 0.46 0.18 0.95 0.67 0.95 h 4.82 l 17.9 -0.02 Z" stroke-linecap="round"/>
</g>
		<g transform="matrix(12.5 0 0 12.5 124.0625 218.1545)" id="x">
<path style="stroke: none; stroke-width: 1; stroke-dasharray: none; stroke-linecap: butt; stroke-dashoffset: 0; stroke-linejoin: miter; stroke-miterlimit: 4; is-custom-font: none; font-file-url: none; fill: rgb(122,82,67); fill-rule: nonzero; opacity: 1;" transform=" translate(-41.925, -49.4524)" d="M 44.45 41.09 l -11.39 9.43 l 9.97 7.11 c 0.46 0.33 1.09 0.23 1.43 -0.22 l 5.86 -7.7 c 0.21 -0.29 0.38 -0.62 0.47 -0.97 l -6.35 -7.66 Z" stroke-linecap="round"/>
</g>
		<g transform="matrix(12.5 0 0 12.5 289.625 -286.375)" id="y">
<path style="stroke: none; stroke-width: 1; stroke-dasharray: none; stroke-linecap: butt; stroke-dashoffset: 0; stroke-linejoin: miter; stroke-miterlimit: 4; is-custom-font: none; font-file-url: none; fill: rgb(154,129,121); fill-rule: nonzero; opacity: 1;" transform=" translate(-55.17, -9.09)" d="M 58.83 9.5 l -5.84 -1.27 l -1.48 1.72 l 7.32 -0.45 Z" stroke-linecap="round"/>
</g>
		<g transform="matrix(12.5 0 0 12.5 274.5 -238.75)" id="a`">
<path style="stroke: none; stroke-width: 1; stroke-dasharray: none; stroke-linecap: butt; stroke-dashoffset: 0; stroke-linejoin: miter; stroke-miterlimit: 4; is-custom-font: none; font-file-url: none; fill: rgb(122,82,67); fill-rule: nonzero; opacity: 1;" transform=" translate(-53.96, -12.9)" d="M 58.47 15.94 l -5.52 -6.08 l -3.5 0.21 l 9.02 5.86 Z" stroke-linecap="round"/>
</g>
		<g transform="matrix(12.5 0 0 12.5 -236.6875 102.875)" id="aa">
<path style="stroke: none; stroke-width: 1; stroke-dasharray: none; stroke-linecap: butt; stroke-dashoffset: 0; stroke-linejoin: miter; stroke-miterlimit: 4; is-custom-font: none; font-file-url: none; fill: rgb(122,82,67); fill-rule: nonzero; opacity: 1;" transform=" translate(-13.065, -40.23)" d="M 10.86 44.05 l 2.08 -7.64 l 2.33 1.21 l -4.41 6.43 Z" stroke-linecap="round"/>
</g>
		<g transform="matrix(12.5 0 0 12.5 181.5 186.4375)" id="ab">
<path style="stroke: none; stroke-width: 1; stroke-dasharray: none; stroke-linecap: butt; stroke-dashoffset: 0; stroke-linejoin: miter; stroke-miterlimit: 4; is-custom-font: none; font-file-url: none; fill: rgb(154,129,121); fill-rule: nonzero; opacity: 1;" transform=" translate(-46.52, -46.915)" d="M 44.45 41.09 l -2.21 1.83 l 5.79 9.82 l 2.3 -3.02 c 0.21 -0.29 0.38 -0.62 0.47 -0.97 l -6.35 -7.66 Z" stroke-linecap="round"/>
</g>
		<g transform="matrix(12.5 0 0 12.5 -0.0075 0.0079)" id="n">
<path style="stroke: none; stroke-width: 1; stroke-dasharray: none; stroke-linecap: butt; stroke-dashoffset: 0; stroke-linejoin: miter; stroke-miterlimit: 4; is-custom-font: none; font-file-url: none; fill: rgb(0,0,0); fill-rule: nonzero; opacity: 1;" transform=" translate(-31.9994, -32.0006)" d="M 18.34 31.38 l -3.39 4.94 l -9.02 -4.7 c -0.65 -0.33 -1.44 -0.08 -1.78 0.56 c -0.2 0.38 -0.2 0.84 0 1.22 l 5.31 10.28 c 0.35 0.68 0.81 1.31 1.35 1.86 l 12.54 12.66 c 0.78 0.79 2.03 0.81 2.84 0.06 l 6.95 -6.45 l 9.31 6.63 c 0.36 0.26 0.78 0.38 1.19 0.38 c 0.61 0 1.22 -0.28 1.62 -0.81 l 5.85 -7.69 c 0.53 -0.69 0.82 -1.55 0.82 -2.42 V 27.6 l 6.92 -10.19 c 0.47 -0.69 0.75 -1.5 0.81 -2.33 l 0.33 -4.51 c 0.07 -0.94 -0.28 -1.85 -0.97 -2.5 l -2.47 -2.34 c -0.25 -0.25 -0.57 -0.42 -0.92 -0.5 h 0 c -0.71 -0.16 -1.44 0.08 -1.91 0.63 l -2.69 3.12 l -1.3 0.08 l -3.21 -2.09 c -0.72 -0.46 -1.55 -0.71 -2.4 -0.71 h -6.05 c -0.94 0 -1.83 0.42 -2.42 1.15 l -3.59 4.43 c -0.49 0.61 -0.88 1.29 -1.14 2.03 l -4.32 12.16 c -0.15 0.43 -0.13 0.9 0.07 1.31 s 0.54 0.72 0.97 0.88 c 0.18 0.07 0.38 0.1 0.57 0.1 h 3.82 v 1.79 h -11.3 c -0.96 0.01 -1.86 0.48 -2.4 1.28 Z m -11.42 3.01 l 6.9 3.59 l -2.87 4.19 l -4.02 -7.78 Z m 27.13 -4.31 l 9 10.87 l -8.98 7.44 l -0.02 -17.29 h 0 v -1.02 Z m 15.89 16.05 l -14.77 -17.83 h 14.77 v 17.83 Z m -6.32 10.67 l -8.91 -6.35 l 9.62 -7.96 l 5.29 6.38 c -0.04 0.07 -0.03 0.17 -0.08 0.23 l -5.91 7.7 Z M 57.99 10.56 l -0.27 3.7 l -5.18 -3.37 l 5.45 -0.33 Z m -1.28 -1.93 l -2.9 0.18 l 1.39 -1.61 l 1.51 1.43 Z m -19.51 0.04 c 0.21 -0.26 0.53 -0.41 0.87 -0.41 h 6.05 c 0.47 0 0.92 0.13 1.31 0.39 l 11.77 7.65 l -6.5 9.57 l -17.07 -12.78 l 3.57 -4.41 Z m -8.58 17.66 l 4.07 -11.46 l 15.25 11.42 l -19.32 0.03 Z m 3.43 5.78 l 0.02 17.98 l -7.29 6.71 l -12.54 -12.66 s -0.07 -0.11 -0.11 -0.15 l 7.86 -11.47 c 0.17 -0.25 0.45 -0.4 0.75 -0.4 h 11.3 Z" stroke-linecap="round"/>
</g>
</g>
</g>
<g transform="matrix(0.9608 0 0 0.9675 656.469 667.745)" id="998271">
<g style="" vector-effect="non-scaling-stroke">
		<g transform="matrix(12.5 0 0 12.5 -266.5002 78.3748)" id="o">
<path style="stroke: none; stroke-width: 1; stroke-dasharray: none; stroke-linecap: butt; stroke-dashoffset: 0; stroke-linejoin: miter; stroke-miterlimit: 4; is-custom-font: none; font-file-url: none; fill: rgb(169,132,121); fill-rule: nonzero; opacity: 1;" transform=" translate(-10.68, -38.27)" d="M 10.86 44.05 l 5.5 -1.79 l -1.09 -4.64 l -9.8 -5.1 c -0.28 -0.15 -0.58 0.15 -0.43 0.43 l 5.31 10.28 c 0.15 0.29 0.32 0.56 0.51 0.83 h 0 Z" stroke-linecap="round"/>
</g>
		<g transform="matrix(12.5 0 0 12.5 -107.75 155.6106)" id="p">
<path style="stroke: none; stroke-width: 1; stroke-dasharray: none; stroke-linecap: butt; stroke-dashoffset: 0; stroke-linejoin: miter; stroke-miterlimit: 4; is-custom-font: none; font-file-url: none; fill: rgb(203,182,175); fill-rule: nonzero; opacity: 1;" transform=" translate(-23.38, -44.4488)" d="M 33.06 50.52 l 2.84 -9.67 l -2.86 -9.75 h -12.3 c -0.63 0.01 -1.22 0.32 -1.58 0.84 l -3.89 5.67 l -4.41 6.43 c 0.2 0.28 0.42 0.54 0.66 0.79 l 12.54 12.66 c 0.4 0.4 1.04 0.41 1.45 0.03 l 7.55 -7.01 Z" stroke-linecap="round"/>
</g>
		<g transform="matrix(12.5 0 0 12.5 124.8125 49.9375)" id="q">
<path style="stroke: none; stroke-width: 1; stroke-dasharray: none; stroke-linecap: butt; stroke-dashoffset: 0; stroke-linejoin: miter; stroke-miterlimit: 4; is-custom-font: none; font-file-url: none; fill: rgb(203,182,175); fill-rule: nonzero; opacity: 1;" transform=" translate(-41.985, -35.995)" d="M 50.79 48.75 c 0.09 -0.27 0.13 -0.56 0.14 -0.84 V 27.29 l -9.01 -4.05 l -8.88 4.06 l 3.59 10.71 l 14.17 10.73 Z" stroke-linecap="round"/>
</g>
		<g transform="matrix(12.5 0 0 12.5 84.1875 86.375)" id="r">
<path style="stroke: none; stroke-width: 1; stroke-dasharray: none; stroke-linecap: butt; stroke-dashoffset: 0; stroke-linejoin: miter; stroke-miterlimit: 4; is-custom-font: none; font-file-url: none; fill: rgb(169,132,121); fill-rule: nonzero; opacity: 1;" transform=" translate(-38.735, -38.91)" d="M 33.04 27.31 v 3.79 l 0.02 19.41 l 9.66 -3.38 l 1.72 -6.05 l -11.41 -13.77 Z" stroke-linecap="round"/>
</g>
		<g transform="matrix(12.5 0 0 12.5 84.3125 51)" id="s">
<path style="stroke: none; stroke-width: 1; stroke-dasharray: none; stroke-linecap: butt; stroke-dashoffset: 0; stroke-linejoin: miter; stroke-miterlimit: 4; is-custom-font: none; font-file-url: none; fill: rgb(122,82,67); fill-rule: nonzero; opacity: 1;" transform=" translate(-38.745, -36.08)" d="M 33.04 27.31 l 10.34 17.54 l 1.07 -3.77 l -11.41 -13.77 Z" stroke-linecap="round"/>
</g>
		<g transform="matrix(12.5 0 0 12.5 167.1875 -184)" id="t">
<path style="stroke: none; stroke-width: 1; stroke-dasharray: none; stroke-linecap: butt; stroke-dashoffset: 0; stroke-linejoin: miter; stroke-miterlimit: 4; is-custom-font: none; font-file-url: none; fill: rgb(203,182,175); fill-rule: nonzero; opacity: 1;" transform=" translate(-45.375, -17.28)" d="M 58.47 15.94 l -2.59 -4.4 l -6.42 -1.46 l -3.49 -2.27 c -0.55 -0.36 -1.2 -0.55 -1.86 -0.55 h -6.05 c -0.64 0 -1.24 0.29 -1.64 0.79 l -3.59 4.43 c -0.21 0.26 -0.4 0.54 -0.56 0.84 l 5.61 9.95 l 13.06 4.03 l 7.09 -10.44 c 0.19 -0.28 0.34 -0.59 0.45 -0.91 h 0 Z" stroke-linecap="round"/>
</g>
		<g transform="matrix(12.5 0 0 12.5 289.5625 -290.3401)" id="u">
<path style="stroke: none; stroke-width: 1; stroke-dasharray: none; stroke-linecap: butt; stroke-dashoffset: 0; stroke-linejoin: miter; stroke-miterlimit: 4; is-custom-font: none; font-file-url: none; fill: rgb(122,82,67); fill-rule: nonzero; opacity: 1;" transform=" translate(-55.165, -8.7728)" d="M 55.41 6.2 c -0.35 -0.08 -0.71 0.04 -0.94 0.31 l -2.97 3.44 l 5.12 1.42 l 2.21 -1.86 c -0.11 -0.27 -0.28 -0.51 -0.49 -0.71 l -2.48 -2.35 c -0.13 -0.12 -0.28 -0.2 -0.45 -0.24 h 0 Z" stroke-linecap="round"/>
</g>
		<g transform="matrix(12.5 0 0 12.5 277.9014 -241)" id="v">
<path style="stroke: none; stroke-width: 1; stroke-dasharray: none; stroke-linecap: butt; stroke-dashoffset: 0; stroke-linejoin: miter; stroke-miterlimit: 4; is-custom-font: none; font-file-url: none; fill: rgb(169,132,121); fill-rule: nonzero; opacity: 1;" transform=" translate(-54.2321, -12.72)" d="M 58.83 9.5 l -7.32 0.45 l -2.05 0.13 l 9.02 5.86 c 0.1 -0.3 0.17 -0.61 0.19 -0.93 l 0.33 -4.51 c 0.02 -0.34 -0.03 -0.68 -0.17 -0.99 h 0 Z" stroke-linecap="round"/>
</g>
		<g transform="matrix(12.5 0 0 12.5 90.1252 -146.0625)" id="w">
<path style="stroke: none; stroke-width: 1; stroke-dasharray: none; stroke-linecap: butt; stroke-dashoffset: 0; stroke-linejoin: miter; stroke-miterlimit: 4; is-custom-font: none; font-file-url: none; fill: rgb(169,132,121); fill-rule: nonzero; opacity: 1;" transform=" translate(-39.21, -20.315)" d="M 50.93 27.29 l -18.67 -13.98 c -0.16 0.29 -0.3 0.59 -0.41 0.9 l -4.32 12.16 c -0.16 0.46 0.18 0.95 0.67 0.95 h 4.82 l 17.9 -0.02 Z" stroke-linecap="round"/>
</g>
		<g transform="matrix(12.5 0 0 12.5 124.0625 218.1545)" id="x">
<path style="stroke: none; stroke-width: 1; stroke-dasharray: none; stroke-linecap: butt; stroke-dashoffset: 0; stroke-linejoin: miter; stroke-miterlimit: 4; is-custom-font: none; font-file-url: none; fill: rgb(122,82,67); fill-rule: nonzero; opacity: 1;" transform=" translate(-41.925, -49.4524)" d="M 44.45 41.09 l -11.39 9.43 l 9.97 7.11 c 0.46 0.33 1.09 0.23 1.43 -0.22 l 5.86 -7.7 c 0.21 -0.29 0.38 -0.62 0.47 -0.97 l -6.35 -7.66 Z" stroke-linecap="round"/>
</g>
		<g transform="matrix(12.5 0 0 12.5 289.625 -286.375)" id="y">
<path style="stroke: none; stroke-width: 1; stroke-dasharray: none; stroke-linecap: butt; stroke-dashoffset: 0; stroke-linejoin: miter; stroke-miterlimit: 4; is-custom-font: none; font-file-url: none; fill: rgb(154,129,121); fill-rule: nonzero; opacity: 1;" transform=" translate(-55.17, -9.09)" d="M 58.83 9.5 l -5.84 -1.27 l -1.48 1.72 l 7.32 -0.45 Z" stroke-linecap="round"/>
</g>
		<g transform="matrix(12.5 0 0 12.5 274.5 -238.75)" id="a`">
<path style="stroke: none; stroke-width: 1; stroke-dasharray: none; stroke-linecap: butt; stroke-dashoffset: 0; stroke-linejoin: miter; stroke-miterlimit: 4; is-custom-font: none; font-file-url: none; fill: rgb(122,82,67); fill-rule: nonzero; opacity: 1;" transform=" translate(-53.96, -12.9)" d="M 58.47 15.94 l -5.52 -6.08 l -3.5 0.21 l 9.02 5.86 Z" stroke-linecap="round"/>
</g>
		<g transform="matrix(12.5 0 0 12.5 -236.6875 102.875)" id="aa">
<path style="stroke: none; stroke-width: 1; stroke-dasharray: none; stroke-linecap: butt; stroke-dashoffset: 0; stroke-linejoin: miter; stroke-miterlimit: 4; is-custom-font: none; font-file-url: none; fill: rgb(122,82,67); fill-rule: nonzero; opacity: 1;" transform=" translate(-13.065, -40.23)" d="M 10.86 44.05 l 2.08 -7.64 l 2.33 1.21 l -4.41 6.43 Z" stroke-linecap="round"/>
</g>
		<g transform="matrix(12.5 0 0 12.5 181.5 186.4375)" id="ab">
<path style="stroke: none; stroke-width: 1; stroke-dasharray: none; stroke-linecap: butt; stroke-dashoffset: 0; stroke-linejoin: miter; stroke-miterlimit: 4; is-custom-font: none; font-file-url: none; fill: rgb(154,129,121); fill-rule: nonzero; opacity: 1;" transform=" translate(-46.52, -46.915)" d="M 44.45 41.09 l -2.21 1.83 l 5.79 9.82 l 2.3 -3.02 c 0.21 -0.29 0.38 -0.62 0.47 -0.97 l -6.35 -7.66 Z" stroke-linecap="round"/>
</g>
		<g transform="matrix(12.5 0 0 12.5 -0.0075 0.0079)" id="n">
<path style="stroke: none; stroke-width: 1; stroke-dasharray: none; stroke-linecap: butt; stroke-dashoffset: 0; stroke-linejoin: miter; stroke-miterlimit: 4; is-custom-font: none; font-file-url: none; fill: rgb(0,0,0); fill-rule: nonzero; opacity: 1;" transform=" translate(-31.9994, -32.0006)" d="M 18.34 31.38 l -3.39 4.94 l -9.02 -4.7 c -0.65 -0.33 -1.44 -0.08 -1.78 0.56 c -0.2 0.38 -0.2 0.84 0 1.22 l 5.31 10.28 c 0.35 0.68 0.81 1.31 1.35 1.86 l 12.54 12.66 c 0.78 0.79 2.03 0.81 2.84 0.06 l 6.95 -6.45 l 9.31 6.63 c 0.36 0.26 0.78 0.38 1.19 0.38 c 0.61 0 1.22 -0.28 1.62 -0.81 l 5.85 -7.69 c 0.53 -0.69 0.82 -1.55 0.82 -2.42 V 27.6 l 6.92 -10.19 c 0.47 -0.69 0.75 -1.5 0.81 -2.33 l 0.33 -4.51 c 0.07 -0.94 -0.28 -1.85 -0.97 -2.5 l -2.47 -2.34 c -0.25 -0.25 -0.57 -0.42 -0.92 -0.5 h 0 c -0.71 -0.16 -1.44 0.08 -1.91 0.63 l -2.69 3.12 l -1.3 0.08 l -3.21 -2.09 c -0.72 -0.46 -1.55 -0.71 -2.4 -0.71 h -6.05 c -0.94 0 -1.83 0.42 -2.42 1.15 l -3.59 4.43 c -0.49 0.61 -0.88 1.29 -1.14 2.03 l -4.32 12.16 c -0.15 0.43 -0.13 0.9 0.07 1.31 s 0.54 0.72 0.97 0.88 c 0.18 0.07 0.38 0.1 0.57 0.1 h 3.82 v 1.79 h -11.3 c -0.96 0.01 -1.86 0.48 -2.4 1.28 Z m -11.42 3.01 l 6.9 3.59 l -2.87 4.19 l -4.02 -7.78 Z m 27.13 -4.31 l 9 10.87 l -8.98 7.44 l -0.02 -17.29 h 0 v -1.02 Z m 15.89 16.05 l -14.77 -17.83 h 14.77 v 17.83 Z m -6.32 10.67 l -8.91 -6.35 l 9.62 -7.96 l 5.29 6.38 c -0.04 0.07 -0.03 0.17 -0.08 0.23 l -5.91 7.7 Z M 57.99 10.56 l -0.27 3.7 l -5.18 -3.37 l 5.45 -0.33 Z m -1.28 -1.93 l -2.9 0.18 l 1.39 -1.61 l 1.51 1.43 Z m -19.51 0.04 c 0.21 -0.26 0.53 -0.41 0.87 -0.41 h 6.05 c 0.47 0 0.92 0.13 1.31 0.39 l 11.77 7.65 l -6.5 9.57 l -17.07 -12.78 l 3.57 -4.41 Z m -8.58 17.66 l 4.07 -11.46 l 15.25 11.42 l -19.32 0.03 Z m 3.43 5.78 l 0.02 17.98 l -7.29 6.71 l -12.54 -12.66 s -0.07 -0.11 -0.11 -0.15 l 7.86 -11.47 c 0.17 -0.25 0.45 -0.4 0.75 -0.4 h 11.3 Z" stroke-linecap="round"/>
</g>
</g>
</g>
</svg>